<svg xmlns="http://www.w3.org/2000/svg" xmlns:xlink="http://www.w3.org/1999/xlink" viewBox="0 0 90.70694696474075 95.481" height="95.481" width="90.70694696474075" data-background-color="#8e4739" preserveAspectRatio="xMidYMid meet" id="tight-bounds"><g><svg viewBox="0 0 90.70694696474075 95.481" height="95.481" width="90.70694696474075"><g><svg viewBox="0 0 90.70694696474075 95.481" height="95.481" width="90.70694696474075"><g id="textblocktransform"><svg viewBox="0 0 90.70694696474075 95.481" height="95.481" width="90.70694696474075" id="textblock"><g><svg viewBox="0 0 90.70694696474075 95.481" height="95.481" width="90.70694696474075"><g><svg viewBox="0 0 90.70694696474075 95.481" height="95.481" width="90.70694696474075"><g><svg xmlns="http://www.w3.org/2000/svg" xmlns:xlink="http://www.w3.org/1999/xlink" version="1.1" x="0" y="0" viewBox="4.400000095367432 2 91.19999694824219 96" enable-background="new 0 0 100 100" xml:space="preserve" height="95.481" width="90.70694696474075" class="icon-icon-0" data-fill-palette-color="accent" id="icon-0"><path d="M4.4 54.3V65L57.2 95.6 60.3 97.4 61.4 98 95.5 78.2V67.5L95.6 67.4H95.5V34.6C95.5 34.3 95.3 34.1 94.9 33.9L40.3 2.3C39.5 1.9 38.3 1.9 37.6 2.3L5 21.3C4.6 21.5 4.4 21.9 4.5 22.2V33H4.4 4.5V43.6H4.4 4.5zM61.5 93.1L8.5 62.4V56.7L57.2 84.8 60.3 86.6 61.4 87.2 91.5 69.7V75.5zM91.5 43.6L61.4 61.1 8.5 30.5V24.9L59.8 54.5C60.6 54.9 61.8 54.9 62.5 54.5L91.6 37.6V43.6zM18.9 19.2C18.6 19 18.3 18.9 17.9 18.7L33.1 9.9C33.3 10.1 33.6 10.3 33.9 10.5 36.7 12.1 41.2 12.1 44 10.5 44.3 10.3 44.6 10.1 44.8 9.9L81.8 31.3C81.3 31.5 80.8 31.7 80.4 31.9 77.6 33.5 77.6 36.1 80.4 37.7 80.8 38 81.3 38.2 81.8 38.3L66.4 47.2C66.1 46.9 65.7 46.6 65.3 46.4 62.5 44.8 58 44.8 55.2 46.4 55 46.5 54.8 46.7 54.6 46.8L17.9 25.5C18.3 25.4 18.6 25.2 18.9 25 21.7 23.4 21.7 20.8 18.9 19.2M57.2 63.5L60.3 65.3 61.4 65.9 91.5 48.4V54L61.5 71.8 8.5 41.1V35.4zM57.2 74.2L60.3 76 61.4 76.6 91.4 59.1V64.7L61.4 82.4 8.5 51.8V46zM63 37.3L65.4 35.9C65.8 35.7 66.4 35.7 66.7 35.9L70.9 38.3C71.3 38.5 71.3 38.9 70.9 39.1L68.5 40.5C68.1 40.7 67.5 40.7 67.2 40.5L63 38.1C62.6 37.9 62.6 37.5 63 37.3M29 17.7L31.4 16.3C31.8 16.1 32.4 16.1 32.7 16.3L36.9 18.7C37.3 18.9 37.3 19.3 36.9 19.5L34.5 20.9C34.1 21.1 33.5 21.1 33.2 20.9L29 18.5C28.7 18.3 28.7 17.9 29 17.7M60.9 22.1C54.9 18.6 45.1 18.6 39.1 22.1S33.2 31.2 39.2 34.7 55 38.2 61 34.7C66.9 31.2 66.9 25.6 60.9 22.1M48.3 30.2H44.1V25.4H48.3V27.8H58V30.3z" fill="#c9a07a" data-fill-palette-color="accent"/></svg></g></svg></g></svg></g></svg></g></svg></g><g/></svg></g><defs/></svg>